<svg width="32" height="28" viewBox="0 0 32 28" fill="none" xmlns="http://www.w3.org/2000/svg">
<path d="M12.8517 0.352076C13.1907 0.0978279 13.6101 -0.0256079 14.0327 0.00443102C14.4554 0.03447 14.8531 0.215968 15.1527 0.515601C15.4524 0.815235 15.6338 1.2129 15.6639 1.63558C15.6939 2.05826 15.5705 2.47759 15.3162 2.81658L6.02152 12.1465H29.9273C30.3597 12.1434 30.7782 12.2996 31.1029 12.5853C31.4276 12.871 31.6357 13.2663 31.6876 13.6956V13.9069C31.6876 14.3738 31.5022 14.8215 31.172 15.1516C30.8419 15.4818 30.3941 15.6672 29.9273 15.6672H6.00392L15.3338 24.9972C15.6315 25.3 15.8096 25.7001 15.8355 26.1239C15.8614 26.5477 15.7332 26.9665 15.4747 27.3033L15.3338 27.4793C15.1702 27.6443 14.9755 27.7752 14.761 27.8646C14.5465 27.954 14.3164 28 14.084 28C13.8516 28 13.6215 27.954 13.407 27.8646C13.1925 27.7752 12.9978 27.6443 12.8341 27.4793L0.511584 15.1567L0.388358 15.0159C0.13609 14.7015 -0.000618351 14.31 0.00107855 13.9069V14.0653C-0.000359518 14.0243 -0.000359518 13.9832 0.00107855 13.9421V13.9069C0.00356272 13.5264 0.126849 13.1565 0.353151 12.8507C0.407602 12.7879 0.466428 12.7291 0.529188 12.6746L0.370755 12.8155C0.414473 12.7599 0.461501 12.707 0.511584 12.657L12.8517 0.352076Z" fill="#6C33FF"/>
</svg>
