<svg width="35" height="30" viewBox="0 0 35 30" fill="none" xmlns="http://www.w3.org/2000/svg">
<path fill-rule="evenodd" clip-rule="evenodd" d="M12.8614 15.7143C12.8614 15.1515 12.9723 14.5942 13.1876 14.0742C13.403 13.5542 13.7187 13.0818 14.1167 12.6838C14.5146 12.2859 14.9871 11.9702 15.5071 11.7548C16.027 11.5394 16.5843 11.4286 17.1471 11.4286C17.7099 11.4286 18.2672 11.5394 18.7872 11.7548C19.3072 11.9702 19.7796 12.2859 20.1776 12.6838C20.5756 13.0818 20.8912 13.5542 21.1066 14.0742C21.322 14.5942 21.4328 15.1515 21.4328 15.7143C21.4328 16.8509 20.9813 17.941 20.1776 18.7447C19.3739 19.5485 18.2838 20 17.1471 20C16.0105 20 14.9204 19.5485 14.1167 18.7447C13.3129 17.941 12.8614 16.8509 12.8614 15.7143ZM17.1471 8.57143C15.2527 8.57143 13.4359 9.32398 12.0964 10.6635C10.7568 12.0031 10.0043 13.8199 10.0043 15.7143C10.0043 17.6087 10.7568 19.4255 12.0964 20.765C13.4359 22.1046 15.2527 22.8571 17.1471 22.8571C19.0415 22.8571 20.8583 22.1046 22.1979 20.765C23.5374 19.4255 24.29 17.6087 24.29 15.7143C24.29 13.8199 23.5374 12.0031 22.1979 10.6635C20.8583 9.32398 19.0415 8.57143 17.1471 8.57143ZM15.2328 0H15.1328C14.4614 0 13.9471 -7.98277e-08 13.4757 0.0857142C12.258 0.293151 11.1402 0.889609 10.29 1.78571C9.96142 2.14286 9.6757 2.55714 9.30428 3.11429L9.24713 3.2L9.11856 3.38571C9.03796 3.51298 8.95217 3.6369 8.86142 3.75714C8.62256 4.04795 8.27861 4.23276 7.90428 4.27143C7.74741 4.28291 7.59012 4.28768 7.43285 4.28571H7.30428C6.48999 4.28571 5.90428 4.28571 5.38999 4.37143C4.05866 4.58776 2.8291 5.21735 1.87537 6.17109C0.921629 7.12483 0.292033 8.35439 0.0757044 9.68571C-0.0100098 10.2 -0.0100098 10.7857 -0.0100098 11.6V17.2C-0.0100098 19.1571 -0.0100099 20.7 0.0899901 21.9571C0.204276 23.2429 0.418562 24.3143 0.918562 25.3143C1.74135 26.933 3.05697 28.2486 4.6757 29.0714C5.6757 29.5714 6.76142 29.7857 8.03285 29.9C9.28999 30 10.8328 30 12.79 30H21.4757C23.4328 30 24.9757 30 26.2328 29.9C27.5186 29.7857 28.59 29.5714 29.59 29.0714C31.2087 28.2486 32.5243 26.933 33.3471 25.3143C33.8471 24.3143 34.0614 23.2286 34.1757 21.9571C34.2757 20.7 34.2757 19.1571 34.2757 17.2V11.6C34.2757 10.7857 34.2757 10.2 34.19 9.68571C33.9737 8.35439 33.3441 7.12483 32.3903 6.17109C31.4366 5.21735 30.207 4.58776 28.8757 4.37143C28.3757 4.28571 27.79 4.28571 26.9757 4.28571H26.8328C26.69 4.29127 26.5471 4.29127 26.4043 4.28571C26.2164 4.26838 26.0339 4.21401 25.8671 4.12574C25.7004 4.03747 25.5528 3.91705 25.4328 3.77143C25.3418 3.6465 25.256 3.51782 25.1757 3.38571L25.0471 3.2L24.99 3.11429C24.6947 2.64405 24.3601 2.19961 23.99 1.78571C23.1455 0.887048 22.033 0.28568 20.8186 0.0714285C20.3328 -6.9184e-08 19.8328 0 19.1614 0H15.2328ZM15.2328 2.85714C14.4186 2.85714 14.1757 2.85714 13.9471 2.9C13.345 3.01002 12.7942 3.31049 12.3757 3.75714C12.2186 3.9 12.09 4.1 11.6186 4.78571L11.5043 4.97143L11.4757 5.01429C11.3521 5.21141 11.2186 5.40213 11.0757 5.58571C10.3557 6.46143 9.3181 7.0162 8.18999 7.12857L7.50428 7.14286H7.43285C6.43285 7.14286 6.10428 7.14286 5.86142 7.18571C5.11766 7.30251 4.42983 7.65137 3.89618 8.18245C3.36254 8.71353 3.01037 9.39967 2.88999 10.1429C2.84713 10.4 2.84713 10.7286 2.84713 11.7286V17.1429C2.84713 19.1714 2.84713 20.6 2.94713 21.7143C3.03285 22.8143 3.20428 23.5 3.4757 24.0286C4.0225 25.0978 4.89224 25.9675 5.96142 26.5143C6.48999 26.8 7.1757 26.9571 8.2757 27.0571C9.38999 27.1429 10.8186 27.1429 12.8471 27.1429H21.4186C23.4471 27.1429 24.8757 27.1429 25.99 27.0429C26.7887 27.021 27.5753 26.8414 28.3043 26.5143C29.3735 25.9675 30.2432 25.0978 30.79 24.0286C31.0757 23.5 31.2328 22.8143 31.3328 21.7143C31.4186 20.6 31.4186 19.1714 31.4186 17.1429V11.7286C31.4186 10.7286 31.4186 10.4 31.3757 10.1571C31.2589 9.41338 30.9101 8.72555 30.379 8.19191C29.8479 7.65826 29.1618 7.30609 28.4186 7.18571C27.8963 7.13622 27.3713 7.1219 26.8471 7.14286H26.79L26.1043 7.12857C24.9762 7.0162 23.9385 6.46143 23.2186 5.58571C23.0758 5.40202 22.9423 5.2113 22.8186 5.01429L22.79 4.97143L22.6757 4.78571C22.4553 4.41952 22.2069 4.07086 21.9328 3.74286C21.5069 3.29082 20.9452 2.98992 20.3328 2.88571C19.9056 2.84341 19.4758 2.83385 19.0471 2.85714H15.2328Z" fill="#6C33FF"/>
</svg>
