<svg width="29" height="30" viewBox="0 0 29 30" fill="none" xmlns="http://www.w3.org/2000/svg">
<path d="M15.4977 0C19.5602 0 23.3477 1.625 26.1227 4.4125V2.35C26.1426 2.01848 26.2933 1.70844 26.5418 1.48808C26.7903 1.26773 27.1161 1.15511 27.4477 1.175C27.7792 1.19489 28.0892 1.34566 28.3096 1.59415C28.5299 1.84264 28.6426 2.16848 28.6227 2.5V7.65C28.5858 7.95489 28.438 8.23554 28.2075 8.43843C27.9769 8.64131 27.6798 8.75222 27.3727 8.75H22.2227C21.8911 8.73011 21.5811 8.57934 21.3607 8.33085C21.1404 8.08237 21.0278 7.75652 21.0477 7.425C21.0676 7.09348 21.2183 6.78344 21.4668 6.56308C21.7153 6.34273 22.0411 6.23011 22.3727 6.25H24.4227C22.6884 4.4805 20.4674 3.26632 18.0416 2.76163C15.6159 2.25694 13.0949 2.48451 10.7988 3.41545C8.50266 4.34639 6.53499 5.93869 5.14563 7.99017C3.75627 10.0416 3.00792 12.4597 2.99559 14.9374C2.98326 17.415 3.70752 19.8404 5.0764 21.9056C6.44527 23.9708 8.39701 25.5826 10.6838 26.5364C12.9705 27.4901 15.4891 27.7427 17.9197 27.2622C20.3504 26.7817 22.5834 25.5897 24.3352 23.8375C24.5689 23.6005 24.8872 23.466 25.2201 23.4636C25.3849 23.4625 25.5483 23.4938 25.7011 23.5558C25.8538 23.6178 25.9928 23.7093 26.1102 23.825C26.2275 23.9407 26.321 24.0784 26.3851 24.2303C26.4493 24.3821 26.4829 24.5451 26.484 24.7099C26.4852 24.8747 26.4539 25.0382 26.3919 25.1909C26.3299 25.3436 26.2384 25.4826 26.1227 25.6C24.3796 27.3453 22.2329 28.6338 19.873 29.3513C17.513 30.0689 15.0124 30.1933 12.5929 29.7137C10.1733 29.2341 7.90932 28.1652 6.0015 26.6017C4.09367 25.0381 2.60087 23.0282 1.65532 20.75C0.709763 18.4718 0.340636 15.9955 0.580631 13.5406C0.820626 11.0856 1.66234 8.72772 3.03121 6.67575C4.40008 4.62377 6.25387 2.94104 8.42838 1.7766C10.6029 0.612157 13.031 0.00194131 15.4977 0ZM14.8727 7.5C15.2042 7.5 15.5221 7.6317 15.7565 7.86612C15.991 8.10054 16.1227 8.41848 16.1227 8.75V14.4875L19.4977 17.8625C19.7043 18.1002 19.8135 18.407 19.8037 18.7218C19.7938 19.0365 19.6655 19.3359 19.4444 19.5602C19.2233 19.7844 18.9258 19.917 18.6112 19.9313C18.2966 19.9456 17.9882 19.8407 17.7477 19.6375L13.9977 15.8875C13.8795 15.7717 13.7856 15.6337 13.7212 15.4813C13.6568 15.329 13.6233 15.1654 13.6227 15V8.75C13.6227 8.41848 13.7544 8.10054 13.9888 7.86612C14.2232 7.6317 14.5411 7.5 14.8727 7.5Z" fill="#6C33FF"/>
</svg>
