<svg width="29" height="30" viewBox="0 0 29 30" fill="none" xmlns="http://www.w3.org/2000/svg">
<path d="M28.5714 22.4C28.3286 26.8714 21.9286 30 14.2857 30C6.5 30 0 26.7571 0 22.1429V7.6C0.242857 3.14286 6.65714 0 14.2857 0C22.0714 0 28.5714 3.24286 28.5714 7.85714V22.1429V22.4ZM25.7143 12.6714C23.0857 14.5714 18.9143 15.7143 14.2857 15.7143C9.65714 15.7143 5.48571 14.5714 2.85714 12.6714V15C2.85714 17.5 7.87143 20 14.2857 20C20.7 20 25.7143 17.5 25.7143 15V12.6714ZM14.2857 2.85714C7.87143 2.85714 2.85714 5.35714 2.85714 7.85714C2.85714 10.3571 7.87143 12.8571 14.2857 12.8571C20.7 12.8571 25.7143 10.3571 25.7143 7.85714C25.7143 5.35714 20.7 2.85714 14.2857 2.85714ZM25.7143 19.8143C23.0857 21.7 18.9143 22.8571 14.2857 22.8571C9.65714 22.8571 5.48571 21.7143 2.85714 19.8143V22.3143C3.08571 24.7429 8.01429 27.1429 14.2857 27.1429C20.7 27.1429 25.7143 24.6429 25.7143 22.1429V19.8143Z" fill="#6C33FF"/>
</svg>
