<svg width="25" height="30" viewBox="0 0 25 30" fill="none" xmlns="http://www.w3.org/2000/svg">
<path fill-rule="evenodd" clip-rule="evenodd" d="M9.62478 0.000682137C6.54985 0.000682137 5.21238 0.275676 3.83741 1.00066C2.6291 1.6414 1.64071 2.62978 0.999978 3.8381C0.274994 5.21306 0 6.55053 0 9.61296V20.3877C0 23.4501 0.274994 24.8001 0.999978 26.1626C1.64009 27.3714 2.62864 28.3599 3.83741 29C5.21238 29.725 6.54985 30 9.61228 30H15.3871C18.4496 30 19.7996 29.725 21.162 29C22.3708 28.3599 23.3593 27.3714 23.9995 26.1626C24.7369 24.7876 24.9994 23.4501 24.9994 20.3877V12.9504C24.9994 11.9504 24.9619 11.5004 24.8494 11.0004C24.7354 10.4996 24.5367 10.0219 24.2619 9.58796C23.9003 9.03739 23.4721 8.53359 22.987 8.088L16.8996 2.01314C16.1996 1.30065 15.8496 1.01316 15.3996 0.738165C14.9695 0.464673 14.4962 0.266033 13.9997 0.150679C13.507 0.0437725 13.0038 -0.00655193 12.4997 0.000682137H9.62478ZM9.62478 2.50063C6.69985 2.50063 5.83737 2.76312 5.01239 3.20061C4.24407 3.61039 3.61688 4.24193 3.21243 5.01307C2.74994 5.83805 2.49994 6.70053 2.49994 9.62546V20.4002C2.49994 23.3127 2.76244 24.1751 3.19993 25.0001C3.60769 25.7731 4.23944 26.4048 5.01239 26.8126C5.83737 27.2501 6.69985 27.5126 9.61228 27.5126H15.3871C18.2996 27.5126 19.1621 27.2501 19.987 26.8126C20.76 26.4048 21.3917 25.7731 21.7995 25.0001C22.237 24.1751 22.4995 23.3127 22.4995 20.4002V12.5004H15.6246C14.7959 12.5004 14.001 12.1712 13.415 11.5851C12.8289 10.9991 12.4997 10.2043 12.4997 9.37547V2.50063H9.62478ZM15.1247 3.7756L14.9997 3.6506V9.37547C14.9972 9.52346 15.0474 9.6675 15.1413 9.78195C15.2351 9.8964 15.3666 9.97383 15.5121 10.0005H21.362C21.3163 9.95866 21.2705 9.91699 21.2245 9.87546L15.1247 3.7631V3.7756Z" fill="#6C33FF"/>
</svg>
