<svg width="31" height="30" viewBox="0 0 31 30" fill="none" xmlns="http://www.w3.org/2000/svg">
<path d="M16.844 0.0513095C17.3956 0.141101 17.9087 0.346339 18.3833 0.718333C19.1401 1.33405 19.4993 2.10369 19.7815 3.21967C19.8585 3.5147 19.9739 3.86104 20.1278 4.1689C20.487 4.32283 20.8333 4.48958 21.1797 4.68199C21.5132 4.5922 21.8339 4.48958 22.0904 4.36131C23.9119 3.52753 25.4255 3.56601 26.6698 4.91289L26.9777 5.27205L27.7858 6.25976C28.0038 6.52914 28.0936 6.64458 28.2347 6.8883C29.1198 8.36345 28.7735 9.73598 27.6447 11.224C27.4651 11.4805 27.2727 11.8012 27.1188 12.1347L27.3753 13.2379C27.6447 13.4687 27.9525 13.674 28.2219 13.8023C29.2481 14.3282 29.928 14.8541 30.3513 15.7392C30.6078 16.2779 30.6848 16.8295 30.6591 17.3811C30.6335 17.6761 30.6078 17.8429 30.518 18.202L30.223 19.4591C30.146 19.8183 30.0947 19.9722 29.9921 20.2544C29.7869 20.7675 29.4662 21.2293 28.9916 21.6013C28.2219 22.2042 27.401 22.3838 26.2337 22.4094C25.9386 22.4094 25.5923 22.4607 25.246 22.5377C25.0151 22.8456 24.7842 23.1406 24.5276 23.4356C24.5276 23.782 24.5661 24.1283 24.6174 24.4105C24.874 25.5521 24.874 26.3987 24.4507 27.2838C24.1941 27.8226 23.8221 28.2331 23.3732 28.5666C23.1294 28.7205 22.9883 28.8103 22.642 28.9642L21.4875 29.5286C21.154 29.6954 21.0001 29.7595 20.7179 29.8493C20.2048 30.0161 19.6404 30.0545 19.0503 29.9134C18.1011 29.7082 17.4341 29.1695 16.6901 28.2844C16.4582 28.0198 16.2004 27.7791 15.9205 27.566C15.5487 27.5828 15.1763 27.5828 14.8045 27.566C14.529 27.7798 14.2755 28.0204 14.0477 28.2844C13.3037 29.1823 12.6366 29.6954 11.6874 29.9134C11.0974 30.0417 10.533 30.0161 10.0199 29.8493C9.75387 29.7667 9.4962 29.6593 9.25022 29.5286L8.09576 28.9642C8.01396 28.9269 7.93271 28.8884 7.85204 28.8488C6.17165 27.9765 5.67138 26.4757 6.12034 24.4105C6.17165 24.1283 6.21013 23.782 6.21013 23.4356C5.95359 23.1406 5.72269 22.8456 5.4918 22.5377C5.14546 22.4607 4.79912 22.4094 4.50409 22.4094C3.34963 22.3838 2.51585 22.2042 1.74621 21.6013C1.29996 21.2482 0.954822 20.7836 0.745671 20.2544C0.644229 19.9971 0.566933 19.7308 0.514778 19.4591L0.219748 18.202C0.129957 17.8172 0.0914744 17.6505 0.0914744 17.3298C0.0528729 16.7334 0.181717 16.138 0.463469 15.6109C0.899599 14.8028 1.54097 14.3025 2.51585 13.8151C2.7724 13.674 3.09308 13.4687 3.37528 13.2379C3.43942 12.8659 3.52921 12.4939 3.63183 12.1347C3.48249 11.8183 3.30202 11.5175 3.09308 11.2368C1.96427 9.73598 1.61793 8.36345 2.50302 6.87547C2.64412 6.65741 2.73391 6.52914 2.95198 6.25976L3.7601 5.27205C3.88838 5.09247 3.96534 5.0155 4.06796 4.91289C5.31222 3.56601 6.82585 3.52753 8.64734 4.36131C8.90388 4.48958 9.22457 4.5922 9.55808 4.68199C9.90442 4.48958 10.2508 4.32283 10.6099 4.1689C10.7639 3.84821 10.8793 3.5147 10.9563 3.21967C11.2385 2.10369 11.5976 1.33405 12.3673 0.718333C12.8291 0.346339 13.3422 0.141101 13.9066 0.0513095C14.1246 0.0128273 14.2914 0 14.5223 0H16.0102C16.3951 0 16.549 -4.77857e-08 16.844 0.0513095ZM16.1257 2.56548H14.7275C14.0861 2.56548 13.7655 2.56548 13.4448 3.84821C13.2179 4.70087 12.854 5.51099 12.3673 6.24693C11.5463 6.51631 10.7767 6.8883 10.0583 7.36291C9.19434 7.27534 8.3499 7.05015 7.55701 6.69589C6.36406 6.13149 6.15882 6.38803 5.76118 6.87547L4.95305 7.87601C4.54257 8.3891 4.33734 8.62 5.13263 9.67184C5.58159 10.2747 6.06903 11.1598 6.33841 12.0577C6.05621 12.8274 5.86379 13.6483 5.78683 14.4949C5.14546 15.1748 4.33734 15.752 3.68314 16.0855C2.50302 16.6884 2.57999 17.0091 2.72109 17.6248L3.00329 18.8819C3.15722 19.4976 3.22135 19.8183 4.54257 19.844C5.27374 19.844 6.24862 20.0107 7.10805 20.3442C7.55701 21.0754 8.09576 21.7552 8.71147 22.3453C8.83975 23.2689 8.77561 24.2309 8.62168 24.9492C8.35231 26.232 8.63451 26.3859 9.21174 26.6681L10.3662 27.2197C10.9434 27.5019 11.2385 27.643 12.0851 26.6296C12.5597 26.0652 13.3037 25.411 14.1246 24.9364C14.9507 25.0432 15.7871 25.0432 16.6131 24.9364C17.4341 25.411 18.1781 26.0652 18.6655 26.6296C19.4993 27.6558 19.7943 27.5019 20.3716 27.2197L21.526 26.6681C22.1033 26.3859 22.3855 26.2448 22.1161 24.9492C21.9466 24.0917 21.9163 23.2125 22.0263 22.3453C22.642 21.7552 23.1808 21.0754 23.6169 20.3442C24.4388 20.0361 25.3051 19.8628 26.1824 19.8311C27.5164 19.8183 27.5934 19.4976 27.7216 18.8819L28.0167 17.6248C28.1578 17.0091 28.2347 16.6884 27.0546 16.0855C26.2716 15.6731 25.5611 15.1359 24.9509 14.4949C24.874 13.6483 24.6816 12.8274 24.3994 12.0577C24.6687 11.1598 25.1562 10.2747 25.6051 9.68467C26.4004 8.62 26.1952 8.37628 25.7847 7.88884L24.9766 6.87547C24.5789 6.38803 24.3737 6.13149 23.1808 6.69589C22.5266 7.00375 21.5902 7.27312 20.6794 7.36291C19.9633 6.88914 19.1867 6.51379 18.3705 6.24693C17.8574 5.47729 17.4726 4.56655 17.293 3.84821C16.9851 2.64244 16.6901 2.56548 16.1257 2.56548ZM15.3689 9.62053C16.1269 9.62053 16.8775 9.76984 17.5779 10.0599C18.2782 10.35 18.9145 10.7752 19.4505 11.3112C19.9865 11.8472 20.4117 12.4836 20.7018 13.1839C20.9919 13.8842 21.1412 14.6348 21.1412 15.3929C21.1412 16.1509 20.9919 16.9015 20.7018 17.6018C20.4117 18.3022 19.9865 18.9385 19.4505 19.4745C18.9145 20.0105 18.2782 20.4357 17.5779 20.7258C16.8775 21.0159 16.1269 21.1652 15.3689 21.1652C13.838 21.1652 12.3698 20.557 11.2872 19.4745C10.2047 18.392 9.59656 16.9238 9.59656 15.3929C9.59656 13.8619 10.2047 12.3937 11.2872 11.3112C12.3698 10.2287 13.838 9.62053 15.3689 9.62053ZM15.3689 12.186C14.5184 12.186 13.7027 12.5239 13.1013 13.1253C12.4999 13.7267 12.162 14.5423 12.162 15.3929C12.162 16.2434 12.4999 17.059 13.1013 17.6604C13.7027 18.2618 14.5184 18.5997 15.3689 18.5997C16.2194 18.5997 17.0351 18.2618 17.6365 17.6604C18.2379 17.059 18.5757 16.2434 18.5757 15.3929C18.5757 14.5423 18.2379 13.7267 17.6365 13.1253C17.0351 12.5239 16.2194 12.186 15.3689 12.186Z" fill="#6C33FF"/>
</svg>
