<svg width="30" height="31" viewBox="0 0 30 31" fill="none" xmlns="http://www.w3.org/2000/svg">
<path d="M28.3146 12.2674L16.3146 0.806693C15.5056 -0.00229603 14.1573 -0.00229603 13.2135 0.806693L1.21348 12.2674C0.404494 13.0764 0 14.155 0 15.2337V26.8292C0 28.7168 1.48315 30.2 3.37079 30.2H11.4607C12.2697 30.2 12.809 29.6606 12.809 28.8516V19.4134H16.8539V28.8516C16.8539 29.6606 17.3933 30.2 18.2022 30.2H26.2921C28.1798 30.2 29.6629 28.7168 29.6629 26.8292V15.2337C29.6629 14.155 29.1236 13.0764 28.3146 12.2674ZM26.9663 26.8292C26.9663 27.2337 26.6966 27.5033 26.2921 27.5033H19.5506V18.0651C19.5506 17.2561 19.0112 16.7168 18.2022 16.7168H11.4607C10.6517 16.7168 10.1124 17.2561 10.1124 18.0651V27.5033H3.37079C2.96629 27.5033 2.69663 27.2337 2.69663 26.8292V15.2337C2.69663 14.8292 2.83146 14.5595 3.10112 14.2898L14.8315 3.09883L26.5618 14.2898C26.8315 14.5595 26.9663 14.964 26.9663 15.2337V26.8292Z" fill="#6C33FF"/>
</svg>
