<svg width="30" height="30" viewBox="0 0 30 30" fill="none" xmlns="http://www.w3.org/2000/svg">
<path d="M12.2727 10.2273C12.2727 10.7698 12.0572 11.29 11.6736 11.6736C11.29 12.0572 10.7698 12.2727 10.2273 12.2727C9.68478 12.2727 9.16451 12.0572 8.78092 11.6736C8.39732 11.29 8.18182 10.7698 8.18182 10.2273C8.18182 9.68478 8.39732 9.16451 8.78092 8.78092C9.16451 8.39732 9.68478 8.18182 10.2273 8.18182C10.7698 8.18182 11.29 8.39732 11.6736 8.78092C12.0572 9.16451 12.2727 9.68478 12.2727 10.2273ZM4.18636 1.09091C5.68636 0.3 7.14545 0 10.4864 0H19.5136C22.8545 0 24.3136 0.3 25.8136 1.09091C27.1323 1.78923 28.2108 2.86767 28.9091 4.18636C29.7 5.68636 30 7.14545 30 10.4864V19.5136C30 22.8545 29.7 24.3273 28.9091 25.8136C28.2108 27.1323 27.1323 28.2108 25.8136 28.9091C24.3136 29.7136 22.8545 30 19.5136 30H10.4864C7.14545 30 5.68636 29.7136 4.18636 28.9091C2.86767 28.2108 1.78923 27.1323 1.09091 25.8136C0.3 24.3136 0 22.8545 0 19.5136V10.4864C0 7.14545 0.3 5.68636 1.09091 4.18636C1.78991 2.86817 2.86817 1.78991 4.18636 1.09091ZM10.4864 2.72727C7.30909 2.72727 6.36818 3.01364 5.46818 3.49091C4.62495 3.93576 3.93576 4.62495 3.49091 5.46818C3.01364 6.36818 2.72727 7.30909 2.72727 10.5V19.5273C2.72727 21.8045 2.86364 22.9364 3.13636 23.7136L6.81818 20.0318C7.32273 19.5273 7.75909 19.0773 8.14091 18.75C8.55 18.4091 9 18.0955 9.54545 17.9318C10.3639 17.6616 11.2468 17.6569 12.0682 17.9182C12.6136 18.0818 13.0636 18.3955 13.4727 18.7364C13.8409 19.05 14.25 19.4455 14.7273 19.9091L18.7227 15.9545C19.2273 15.4364 19.6773 15 20.0591 14.6727C20.4682 14.3318 20.9182 14.0182 21.4773 13.8409C22.2972 13.5752 23.1801 13.5752 24 13.8409C24.5455 14.0182 24.9955 14.3318 25.4045 14.6864C25.7864 15.0136 26.2227 15.45 26.7409 15.9545L27.2727 16.5V10.5C27.2727 7.32273 26.9864 6.38182 26.4955 5.48182C26.0578 4.64253 25.3786 3.95377 24.5455 3.50455C23.6318 3 22.6909 2.72727 19.5 2.72727H10.4727H10.4864ZM27.2727 20.3182L24.8591 17.9045C24.3136 17.3591 23.9455 17.0045 23.6455 16.7455C23.3727 16.5136 23.2364 16.4455 23.1682 16.4318C22.8935 16.3422 22.5974 16.3422 22.3227 16.4318C22.2545 16.4455 22.1182 16.5 21.8318 16.7455C21.5318 16.9909 21.1773 17.3455 20.6182 17.9045L15.7091 22.7864C15.4542 23.0362 15.1115 23.1762 14.7545 23.1762C14.3976 23.1762 14.0549 23.0362 13.8 22.7864L12.9545 21.9682C12.564 21.5718 12.1592 21.1897 11.7409 20.8227C11.4682 20.5773 11.3318 20.5227 11.25 20.4955C10.9795 20.4088 10.6887 20.4088 10.4182 20.4955C10.3364 20.5227 10.2136 20.5773 9.92727 20.8227C9.64091 21.0682 9.27273 21.4227 8.72727 21.9818L4.71818 25.9909C4.95 26.1818 5.20909 26.3591 5.48182 26.4955C6.38182 26.9864 7.32273 27.2727 10.5 27.2727H19.5273C22.7045 27.2727 23.6455 26.9864 24.5455 26.4955C25.3797 26.0557 26.0635 25.3766 26.5091 24.5455C26.9455 23.7273 27.2182 22.8818 27.2727 20.3455V20.3182Z" fill="#6C33FF"/>
</svg>
