<svg width="30" height="31" viewBox="0 0 30 31" fill="none" xmlns="http://www.w3.org/2000/svg">
<path d="M15.1512 0.5C21.486 0.5 26.314 5.80232 26.314 12.4721V15.0256C26.314 15.4442 26.593 15.9465 27.3326 16.8395L27.7093 17.2581C29.2023 19.0023 29.8023 19.993 29.8023 21.5558C29.8023 22.2535 29.7186 22.7977 29.3837 23.4535C28.686 24.8488 27.1791 25.6163 24.9186 25.6163H21.2907C20.3558 28.7698 18.2209 30.5 15.1512 30.5C12.0674 30.5 9.94651 28.7698 9.01163 25.6163H5.38372C3.05349 25.6163 1.53256 24.8209 0.862791 23.3837C0.569767 22.7558 0.5 22.2535 0.5 21.5558C0.5 19.993 1.08605 19.0023 2.59302 17.2721L2.95581 16.8395C3.7093 15.9465 3.98837 15.4442 3.98837 15.0256V12.4721C3.98837 5.80232 8.83023 0.5 15.1512 0.5ZM18.3326 25.6163H11.9698C12.1974 26.2656 12.6321 26.8221 13.2069 27.2002C13.7817 27.5784 14.4648 27.7572 15.1512 27.7093C16.686 27.7093 17.7047 27.0674 18.3326 25.6163ZM15.1512 3.2907C10.4349 3.2907 6.77907 7.28139 6.77907 12.4721V15.0256C6.77907 16.3093 6.24884 17.2721 5.0907 18.6395L4.7 19.1C3.63954 20.3279 3.2907 20.914 3.2907 21.5558C3.2907 21.8628 3.3186 22.0302 3.38837 22.1977C3.55581 22.5605 4.07209 22.8256 5.38372 22.8256H24.9186C26.1884 22.8256 26.7186 22.5465 26.9 22.1837C26.9883 21.9868 27.0266 21.7711 27.0116 21.5558C27.0116 20.914 26.6628 20.3279 25.6163 19.1L25.1977 18.6395C24.0535 17.2721 23.5233 16.3233 23.5233 15.0116V12.4721C23.5233 7.28139 19.8814 3.2907 15.1512 3.2907Z" fill="#6C33FF"/>
</svg>
