<svg width="30" height="30" viewBox="0 0 30 30" fill="none" xmlns="http://www.w3.org/2000/svg">
<path d="M15 0C16.9698 -2.93527e-08 18.9204 0.387986 20.7403 1.14181C22.5601 1.89563 24.2137 3.00052 25.6066 4.3934C26.9995 5.78628 28.1044 7.43986 28.8582 9.25975C29.612 11.0796 30 13.0302 30 15C30 16.9698 29.612 18.9204 28.8582 20.7403C28.1044 22.5601 26.9995 24.2137 25.6066 25.6066C24.2137 26.9995 22.5601 28.1044 20.7403 28.8582C18.9204 29.612 16.9698 30 15 30C11.0218 30 7.20644 28.4196 4.3934 25.6066C1.58035 22.7936 0 18.9782 0 15C0 11.0218 1.58035 7.20644 4.3934 4.3934C7.20644 1.58035 11.0218 5.92805e-08 15 0ZM15 2.5C11.6848 2.5 8.50537 3.81696 6.16117 6.16117C3.81696 8.50537 2.5 11.6848 2.5 15C2.5 18.3152 3.81696 21.4946 6.16117 23.8388C8.50537 26.183 11.6848 27.5 15 27.5C18.3152 27.5 21.4946 26.183 23.8388 23.8388C26.183 21.4946 27.5 18.3152 27.5 15C27.5 11.6848 26.183 8.50537 23.8388 6.16117C21.4946 3.81696 18.3152 2.5 15 2.5ZM15 7.5C15.3315 7.5 15.6495 7.6317 15.8839 7.86612C16.1183 8.10054 16.25 8.41848 16.25 8.75V13.75H21.25C21.5815 13.75 21.8995 13.8817 22.1339 14.1161C22.3683 14.3505 22.5 14.6685 22.5 15C22.5 15.3315 22.3683 15.6495 22.1339 15.8839C21.8995 16.1183 21.5815 16.25 21.25 16.25H16.25V21.25C16.25 21.5815 16.1183 21.8995 15.8839 22.1339C15.6495 22.3683 15.3315 22.5 15 22.5C14.6685 22.5 14.3505 22.3683 14.1161 22.1339C13.8817 21.8995 13.75 21.5815 13.75 21.25V16.25H8.75C8.41848 16.25 8.10054 16.1183 7.86612 15.8839C7.6317 15.6495 7.5 15.3315 7.5 15C7.5 14.6685 7.6317 14.3505 7.86612 14.1161C8.10054 13.8817 8.41848 13.75 8.75 13.75H13.75V8.75C13.75 8.41848 13.8817 8.10054 14.1161 7.86612C14.3505 7.6317 14.6685 7.5 15 7.5Z" fill="#6C33FF"/>
</svg>
