<svg width="30" height="30" viewBox="0 0 30 30" fill="none" xmlns="http://www.w3.org/2000/svg">
<path fill-rule="evenodd" clip-rule="evenodd" d="M12.8545 1.12805e-08C10.8009 0.000107611 8.77722 0.492213 6.95291 1.43511C5.1286 2.37801 3.55674 3.74426 2.36895 5.41947C1.18116 7.09467 0.411996 9.03007 0.125873 11.0636C-0.16025 13.0972 0.0449927 15.1697 0.724415 17.1076C1.40384 19.0455 2.53766 20.7924 4.03096 22.2021C5.52425 23.6118 7.33355 24.6432 9.30737 25.21C11.2812 25.7768 13.3621 25.8624 15.3758 25.4597C17.3895 25.057 19.2774 24.1778 20.8815 22.8955L27.5516 29.5799C27.6848 29.7131 27.8429 29.8188 28.0169 29.8908C28.1909 29.9629 28.3773 30 28.5657 30C28.754 30 28.9405 29.9629 29.1145 29.8908C29.2885 29.8188 29.4466 29.7131 29.5798 29.5799C29.7129 29.4468 29.8186 29.2887 29.8907 29.1147C29.9627 28.9407 29.9998 28.7542 29.9998 28.5659C29.9998 28.3775 29.9627 28.191 29.8907 28.017C29.8186 27.843 29.7129 27.6849 29.5798 27.5518L22.8954 20.8816C24.4072 18.9906 25.3542 16.7111 25.6275 14.3055C25.9008 11.8999 25.4891 9.46599 24.4399 7.28405C23.3907 5.10212 21.7467 3.26083 19.6971 1.97218C17.6474 0.683526 15.2755 -0.000101398 12.8545 1.12805e-08ZM12.8545 2.85659C11.5415 2.85659 10.2414 3.11519 9.02837 3.61764C7.81535 4.12009 6.71317 4.85654 5.78476 5.78495C4.85636 6.71335 4.11991 7.81553 3.61746 9.02855C3.11501 10.2416 2.8564 11.5417 2.8564 12.8546C2.8564 14.1676 3.11501 15.4677 3.61746 16.6807C4.11991 17.8937 4.85636 18.9959 5.78476 19.9243C6.71317 20.8527 7.81535 21.5892 9.02837 22.0916C10.2414 22.5941 11.5415 22.8527 12.8545 22.8527C15.5061 22.8527 18.0491 21.7993 19.9241 19.9243C21.7991 18.0493 22.8525 15.5063 22.8525 12.8546C22.8525 10.203 21.7991 7.65995 19.9241 5.78495C18.0491 3.90995 15.5061 2.85659 12.8545 2.85659Z" fill="#6C33FF"/>
</svg>
