<svg width="29" height="30" viewBox="0 0 29 30" fill="none" xmlns="http://www.w3.org/2000/svg">

<path fill-rule="evenodd" clip-rule="evenodd" d="M9.26471 7.5C9.26471 6.21292 9.776 4.97856 10.6861 4.06845C11.5962 3.15835 12.8306 2.64706 14.1176 2.64706C15.4047 2.64706 16.6391 3.15835 17.5492 4.06845C18.4593 4.97856 18.9706 6.21292 18.9706 7.5V7.94118H9.26471V7.5ZM6.61765 7.94118V7.5C6.61765 5.51088 7.40782 3.60322 8.81435 2.1967C10.2209 0.790176 12.1285 0 14.1176 0C16.1068 0 18.0144 0.790176 19.4209 2.1967C20.8275 3.60322 21.6176 5.51088 21.6176 7.5V7.94118C23.4 7.97647 24.4765 8.08235 25.3412 8.52353C26.3337 9.02632 27.1426 9.82902 27.6529 10.8176C28.2353 11.9647 28.2353 13.4471 28.2353 16.4118V17.2941C28.2353 21.7412 28.2353 23.9647 27.3706 25.6588C26.6087 27.1562 25.3915 28.3734 23.8941 29.1353C22.2 30 19.9765 30 15.5294 30H12.7059C8.25882 30 6.03529 30 4.34118 29.1353C2.84378 28.3734 1.6266 27.1562 0.864706 25.6588C0 23.9647 0 21.7412 0 17.2941V16.4118C0 13.4471 -1.57777e-07 11.9647 0.582353 10.8353C1.08514 9.84279 1.88785 9.03391 2.87647 8.52353C3.75882 8.08235 4.81765 7.97647 6.61765 7.94118ZM5.20588 10.6588C5.96471 10.5882 6.95294 10.5882 8.47059 10.5882H19.7647C21.2824 10.5882 22.2706 10.5882 23.0294 10.6588C23.7353 10.7118 24.0176 10.8176 24.1412 10.8706C24.6353 11.1353 25.0412 11.5412 25.3059 12.0353C25.3588 12.1588 25.4824 12.4235 25.5176 13.1471C25.5882 13.9059 25.5882 14.8941 25.5882 16.4118V17.2941C25.5882 19.5529 25.5882 21.1059 25.4824 22.2882C25.3941 23.4529 25.2176 24.0529 25.0059 24.4588C24.5031 25.4513 23.7004 26.2602 22.7118 26.7706C22.2882 26.9824 21.6882 27.1588 20.5235 27.2471C19.3412 27.3529 17.7882 27.3529 15.5294 27.3529H12.7059C10.4471 27.3529 8.89412 27.3529 7.71176 27.2471C6.54706 27.1588 5.94706 26.9824 5.54118 26.7706C4.54867 26.2678 3.73979 25.4651 3.22941 24.4765C2.9279 23.7856 2.76597 23.0419 2.75294 22.2882C2.64706 21.1059 2.64706 19.5529 2.64706 17.2941V16.4118C2.64706 14.8941 2.64706 13.9059 2.71765 13.1471C2.77059 12.4412 2.87647 12.1588 2.92941 12.0353C3.19412 11.5412 3.6 11.1353 4.09412 10.8706C4.21765 10.8176 4.48235 10.6941 5.20588 10.6588ZM6.61765 14.7706C6.61765 14.3611 6.78033 13.9683 7.06991 13.6787C7.35949 13.3892 7.75224 13.2265 8.16177 13.2265C8.57129 13.2265 8.96404 13.3892 9.25362 13.6787C9.5432 13.9683 9.70588 14.3611 9.70588 14.7706C9.70588 15.1801 9.5432 15.5729 9.25362 15.8624C8.96404 16.152 8.57129 16.3147 8.16177 16.3147C7.75224 16.3147 7.35949 16.152 7.06991 15.8624C6.78033 15.5729 6.61765 15.1801 6.61765 14.7706ZM20.0824 13.2353C19.8657 13.2121 19.6466 13.2348 19.4393 13.3018C19.232 13.3688 19.0411 13.4787 18.879 13.6243C18.717 13.77 18.5874 13.9481 18.4987 14.1471C18.41 14.3461 18.3641 14.5615 18.3641 14.7794C18.3641 14.9973 18.41 15.2127 18.4987 15.4117C18.5874 15.6107 18.717 15.7888 18.879 15.9345C19.0411 16.0801 19.232 16.19 19.4393 16.257C19.6466 16.3241 19.8657 16.3467 20.0824 16.3235C20.4634 16.2827 20.8159 16.1025 21.0721 15.8174C21.3283 15.5324 21.47 15.1627 21.47 14.7794C21.47 14.3962 21.3283 14.0265 21.0721 13.7414C20.8159 13.4564 20.4634 13.2761 20.0824 13.2353Z" fill="gray"/>
</svg>
