<?xml version="1.0" encoding="UTF-8"?> <svg xmlns="http://www.w3.org/2000/svg" id="a" viewBox="0 0 2450.83 2429.74"> <defs> <style>.b{fill:#fff;}.c{fill:#234d5a;fill-rule:evenodd;}</style> </defs> <rect class="b" x="380.04" y="382.75" width="1707.22" height="1677.17"></rect> <path class="c" d="M1140.15,582.59c-29.5-19.55-61.72-44.25-111.27-19.36-41.15,20.67-50.03,45.98-52.51,102.04-106.85,26.5-160.59,135.41-87.89,236.52,28.5,39.64,76.56,53.11,145,53.06h392.81c50.45,.02,110.83-.84,148.9-49.19,28.57-36.29,48.45-91.02,25.74-149.8-15.76-40.78-56.68-82.03-107.43-89.86-3.21-53.87-10.45-91.44-37.88-127.48-90.86-119.39-270.95-82.2-315.47,44.07m-503.65,849.23c53.11,0,95.23-21.06,125.45-58.15l-33.88-34.8c-20.6,27.02-50.82,43.96-90.66,43.96-63.18,0-105.76-49.45-105.76-113.1s43.95-112.19,107.59-112.19c38,0,65.47,12.82,87.91,33.43l27.93-36.63c-34.8-31.59-70.05-45.79-117.21-45.79-94.32,0-161.62,67.77-161.62,161.18s64.1,162.1,160.25,162.1Zm164.08-4.68h189.09v-49.91h-135.07v-261.46h-54.03v311.37Zm402.39-43.57c-65.02,0-106.68-50.37-106.68-113.1s41.66-112.18,106.68-112.18,107.14,47.62,107.14,112.18-41.66,113.1-107.14,113.1Zm0,48.99c96.15,0,162.08-70.97,162.08-162.1s-65.93-161.18-162.08-161.18-162.08,67.77-162.08,161.18,66.85,162.1,162.08,162.1Zm338.42-.01c71.88,0,124.54-41.67,124.54-116.31v-201.02h-54.03v197.35c0,47.62-28.39,70.97-70.51,70.97s-70.97-23.35-70.97-70.97v-197.35h-54.03v201.02c0,74.64,52.65,116.31,124.99,116.31Zm227.39-53.39v-217.96h54.94c65.47,0,106.22,46.25,106.22,109.44s-40.29,108.52-105.76,108.52h-55.4Zm-54.03,46.7h111.72c95.69,0,158.42-65.02,158.42-155.23s-64.56-156.14-158.87-156.14h-111.26v311.37Zm-555.74,467.3c-93.71,0-153.76-72.6-153.76-163.02s60.05-161.7,153.76-161.7,154.42,68.64,154.42,161.7-60.05,163.02-154.42,163.02Zm0,70.62c138.58,0,233.61-102.3,233.61-233.64s-95.03-232.32-233.61-232.32-233.61,97.68-233.61,232.32,96.35,233.64,233.61,233.64Zm-442.15,0c76.55,0,137.26-30.36,180.82-83.82l-48.84-50.16c-29.7,38.94-73.25,63.36-130.66,63.36-91.07,0-152.44-71.28-152.44-163.02s63.35-161.7,155.08-161.7c54.77,0,94.37,18.48,126.71,48.18l40.26-52.8c-50.15-45.54-100.97-66-168.94-66-135.94,0-232.95,97.68-232.95,232.32s92.39,233.64,230.97,233.64Zm1012.07-138.66l189.35-323.87h68.98v451.93l-71.03,.47-.19-301.33-187.47,291.7-188.74-294.78-2.25,302.42-67.15,1.02-.77-452.35,67.73,.93,191.56,323.84ZM0,0H2450.83V2429.74H0V0Z"></path> </svg> 