<svg width="189" height="188" viewBox="0 0 189 188" fill="none" xmlns="http://www.w3.org/2000/svg">
<g clip-path="url(#clip0_391_503)">
<path d="M160.963 29.6151H29.3074V159.385H160.963V29.6151Z" fill="white"/>
<path fill-rule="evenodd" clip-rule="evenodd" d="M87.9246 45.0776C85.6497 43.565 83.165 41.6538 79.3439 43.5797C76.1705 45.179 75.4857 47.1373 75.2945 51.475C67.0545 53.5254 62.9103 61.9522 68.5167 69.7756C70.7145 72.8427 74.4207 73.8849 79.6986 73.8811H109.991C113.881 73.8826 118.538 73.8161 121.473 70.075C123.677 67.2671 125.21 63.0324 123.458 58.4843C122.243 55.329 119.088 52.1373 115.174 51.5314C114.926 47.3633 114.368 44.4563 112.253 41.6677C105.246 32.43 91.3579 35.3076 87.9246 45.0776ZM49.0848 110.786C53.1805 110.786 56.4286 109.157 58.7591 106.287L56.1464 103.594C54.5578 105.685 52.2273 106.996 49.155 106.996C44.2827 106.996 40.9991 103.17 40.9991 98.2448C40.9991 93.3199 44.3884 89.5641 49.2961 89.5641C52.2265 89.5641 54.3449 90.5561 56.0754 92.1507L58.2293 89.3165C55.5456 86.8723 52.8273 85.7735 49.1904 85.7735C41.9168 85.7735 36.7268 91.0172 36.7268 98.2448C36.7268 105.472 41.67 110.786 49.0848 110.786ZM61.7381 110.424H76.3201V106.563H65.904V86.3322H61.7373L61.7381 110.424ZM92.7691 107.053C87.755 107.053 84.5423 103.156 84.5423 98.302C84.5423 93.4483 87.755 89.6222 92.7691 89.6222C97.7832 89.6222 101.031 93.3067 101.031 98.302C101.031 103.297 97.8187 107.053 92.7691 107.053ZM92.7691 110.844C100.184 110.844 105.268 105.352 105.268 98.3012C105.268 91.2501 100.184 85.83 92.7691 85.83C85.3543 85.83 80.27 91.0737 80.27 98.3012C80.27 105.529 85.4253 110.844 92.7691 110.844ZM118.867 110.843C124.41 110.843 128.471 107.619 128.471 101.843V86.2896H124.304V101.559C124.304 105.244 122.115 107.051 118.867 107.051C115.619 107.051 113.394 105.244 113.394 101.559V86.2896H109.227V101.843C109.227 107.619 113.288 110.843 118.867 110.843ZM136.403 106.712V89.8473H140.639C145.688 89.8473 148.831 93.4259 148.831 98.3152C148.831 103.204 145.724 106.712 140.675 106.712H136.403ZM132.236 110.325H140.851C148.231 110.325 153.068 105.294 153.068 98.3144C153.068 91.3344 148.09 86.2331 140.817 86.2331H132.237L132.236 110.325ZM89.3791 146.482C82.1525 146.482 77.5216 140.865 77.5216 133.869C77.5216 126.873 82.1525 121.357 89.3791 121.357C96.6057 121.357 101.287 126.668 101.287 133.869C101.287 141.069 96.6566 146.482 89.3791 146.482ZM89.3791 151.947C100.066 151.947 107.394 144.031 107.394 133.869C107.394 123.706 100.066 115.893 89.3791 115.893C78.6922 115.893 71.3638 123.451 71.3638 133.869C71.3638 144.286 78.794 151.947 89.3791 151.947ZM55.2819 151.947C61.1852 151.947 65.8669 149.597 69.2261 145.461L65.4598 141.58C63.1694 144.593 59.811 146.482 55.3837 146.482C48.3607 146.482 43.628 140.967 43.628 133.869C43.628 126.77 48.5134 121.357 55.5873 121.357C59.811 121.357 62.8648 122.787 65.3587 125.085L68.4635 121C64.5961 117.476 60.677 115.893 55.4354 115.893C44.9521 115.893 37.471 123.451 37.471 133.869C37.471 144.286 44.5951 151.947 55.2819 151.947ZM133.329 141.218L147.931 116.159H153.251V151.126L147.773 151.163L147.759 127.847L133.302 150.418L118.747 127.609L118.573 151.009L113.395 151.088L113.335 116.087L118.558 116.159L133.331 141.216L133.329 141.218ZM0 0H189V188H0V0Z" fill="#6C33FF"/>
</g>
<defs>
<clipPath id="clip0_391_503">
<rect width="189" height="188" fill="white"/>
</clipPath>
</defs>
</svg>
